<svg xmlns="http://www.w3.org/2000/svg" width="1600" height="600" viewBox="0 0 1600 600">
  <defs>
    <linearGradient id="sky" x1="0" y1="0" x2="1" y2="1">
      <stop offset="0" stop-color="#0a2a52"/>
      <stop offset="1" stop-color="#123e75"/>
    </linearGradient>
  </defs>
  <rect width="1600" height="600" fill="url(#sky)"/>
  <!-- stylized container rows (top-down port view) -->
  <g opacity="0.55">
    <g transform="translate(40,40)">
      <rect x="0" y="0" width="110" height="34" rx="3" fill="#d35400"/>
      <rect x="118" y="0" width="110" height="34" rx="3" fill="#2471a3"/>
      <rect x="236" y="0" width="110" height="34" rx="3" fill="#1e8449"/>
      <rect x="354" y="0" width="110" height="34" rx="3" fill="#b03a2e"/>
      <rect x="472" y="0" width="110" height="34" rx="3" fill="#2471a3"/>
      <rect x="0" y="42" width="110" height="34" rx="3" fill="#7d6608"/>
      <rect x="118" y="42" width="110" height="34" rx="3" fill="#b03a2e"/>
      <rect x="236" y="42" width="110" height="34" rx="3" fill="#21618c"/>
      <rect x="354" y="42" width="110" height="34" rx="3" fill="#1e8449"/>
      <rect x="472" y="42" width="110" height="34" rx="3" fill="#d35400"/>
    </g>
    <g transform="translate(1020,60)">
      <rect x="0" y="0" width="110" height="34" rx="3" fill="#2471a3"/>
      <rect x="118" y="0" width="110" height="34" rx="3" fill="#d35400"/>
      <rect x="236" y="0" width="110" height="34" rx="3" fill="#b03a2e"/>
      <rect x="354" y="0" width="110" height="34" rx="3" fill="#1e8449"/>
      <rect x="0" y="42" width="110" height="34" rx="3" fill="#1e8449"/>
      <rect x="118" y="42" width="110" height="34" rx="3" fill="#21618c"/>
      <rect x="236" y="42" width="110" height="34" rx="3" fill="#7d6608"/>
      <rect x="354" y="42" width="110" height="34" rx="3" fill="#d35400"/>
    </g>
    <g transform="translate(120,470)">
      <rect x="0" y="0" width="110" height="34" rx="3" fill="#1e8449"/>
      <rect x="118" y="0" width="110" height="34" rx="3" fill="#d35400"/>
      <rect x="236" y="0" width="110" height="34" rx="3" fill="#2471a3"/>
      <rect x="354" y="0" width="110" height="34" rx="3" fill="#b03a2e"/>
      <rect x="472" y="0" width="110" height="34" rx="3" fill="#7d6608"/>
    </g>
    <g transform="translate(1100,480)">
      <rect x="0" y="0" width="110" height="34" rx="3" fill="#b03a2e"/>
      <rect x="118" y="0" width="110" height="34" rx="3" fill="#1e8449"/>
      <rect x="236" y="0" width="110" height="34" rx="3" fill="#d35400"/>
    </g>
  </g>
  <!-- crane silhouettes -->
  <g fill="#081f3d" opacity="0.7">
    <rect x="700" y="120" width="14" height="380"/>
    <rect x="640" y="120" width="200" height="12"/>
    <rect x="820" y="120" width="14" height="380"/>
    <rect x="752" y="132" width="8" height="120"/>
    <rect x="730" y="252" width="52" height="30" rx="3"/>
  </g>
  <!-- dock edge -->
  <rect x="0" y="560" width="1600" height="40" fill="#081f3d" opacity="0.5"/>
</svg>
